# xmcd
#
# Track frame offsets:
#	150
#	22685
#	43110
#	63882
#	81670
#	101612
#	117967
#	137430
#	156205
#	176100
#	192360
#	213007
#
# Disc length: 3048 seconds
#
# Revision: 3
# Processed by: cddbd v1.4PL0 Copyright (c) Steve Scherf et al.
# Submitted via: audiograbber 1.81.03
#
DISCID=9c0be60c
DTITLE=Luu Bich - TNCD 189 - Dem Vang Anh (1999)
DYEAR=1999
DGENRE=Blues
TTITLE0=Luu Bich - Dem Vang Anh
TTITLE1=Luu Bich - Niem Dau Cua Cat
TTITLE2=Luu Bich - Gia Tu Di Vang
TTITLE3=Luu Bich - Tinh Doi Ca Si
TTITLE4=Luu Bich and Tuan Ngoc - Trai Tim Khong Ngu Yen
TTITLE5=Luu Bich - Em Se Co Quen
TTITLE6=Luu Bich - Neu...
TTITLE7=Luu Bich - Anh Thi Khong
TTITLE8=Luu Bich - Nguoi Con Gai
TTITLE9=Luu Bich - Tinh Van Chua Nguoi
TTITLE10=Luu Bich - Bonus Track: Dung Noi Yeu Em
TTITLE11=Luu Bich - Bonus Track: Tinh Doi Ca Si
EXTD=
EXTT0=
EXTT1=
EXTT2=
EXTT3=
EXTT4=
EXTT5=
EXTT6=
EXTT7=
EXTT8=
EXTT9=
EXTT10=
EXTT11=
PLAYORDER=
